<svg xmlns="http://www.w3.org/2000/svg" version="1.1" xmlns:xlink="http://www.w3.org/1999/xlink" xmlns:svgjs="http://svgjs.dev/svgjs" width="1920" height="560" preserveAspectRatio="none" viewBox="0 0 1920 560"><g mask="url(&quot;#SvgjsMask1015&quot;)" fill="none"><rect width="1920" height="560" x="0" y="0" fill="rgba(34, 100, 171, 1)"></rect><path d="M 0,206 C 96,179.4 288,65.2 480,73 C 672,80.8 768,250.4 960,245 C 1152,239.6 1248,59.4 1440,46 C 1632,32.6 1824,151.6 1920,178L1920 560L0 560z" fill="#184a7e"></path><path d="M 0,302 C 96,350.6 288,537 480,545 C 672,553 768,356.6 960,342 C 1152,327.4 1248,461.8 1440,472 C 1632,482.2 1824,408.8 1920,393L1920 560L0 560z" fill="#2264ab"></path></g><defs><mask id="SvgjsMask1015"><rect width="1920" height="560" fill="#ffffff"></rect></mask></defs></svg>